<?xml version="1.0" encoding="utf-8" standalone="yes"?>
<!DOCTYPE svg PUBLIC "-//W3C//DTD SVG 1.1//EN" "http://www.w3.org/Graphics/SVG/1.1/DTD/svg11.dtd">
<svg width="782" height="679" viewBox="0 0 782 679" style="fill:none;stroke:none;fill-rule:evenodd;clip-rule:evenodd;stroke-linecap:round;stroke-linejoin:round;stroke-miterlimit:1.5;" version="1.1" xmlns="http://www.w3.org/2000/svg" xmlns:xlink="http://www.w3.org/1999/xlink"><style class="text-font-style fontImports" data-font-family="Roboto">@import url('https://fonts.googleapis.com/css2?family=Roboto:wght@400;700&amp;display=block');</style><g id="items" style="isolation: isolate"><g id="blend" style="mix-blend-mode: normal"><g id="g-root-0.cu_sy_3zi1jf0n3ls-fill" data-item-order="1999853844" transform="translate(255.9991455078125, 188.3570556640625)"></g><g id="g-root-5.cu_sy_1qa30uvf0n11l-fill" data-item-order="1999853848" transform="translate(238.04220581054688, 138.221435546875)"></g><g id="g-root-4.cu_sy_1qa30uvf0n11m-fill" data-item-order="1999853852" transform="translate(183.4697265625, 306.860107421875)"></g><g id="g-root-3.cu_sy_1lu9iqff0n1tv-fill" data-item-order="1999853856" transform="translate(326.9991455078125, 384.47412109375)"></g><g id="g-root-2.cu_sy_1cymihjf0n2mk-fill" data-item-order="1999853860" transform="translate(455.83184814453125, 307.86029052734375)"></g><g id="g-root-1.cu_sy_18it0d3f0n3et-fill" data-item-order="1999853864" transform="translate(415.7288818359375, 138.221435546875)"></g><g id="g-root-tx__1q87rx3f0wxl4-fill" data-item-order="2000000000" transform="translate(530.9991455078125, 139.99920654296875)"><g id="tx__1q87rx3f0wxl4-fill" stroke="none" fill="#484848"><g><text style="font: bold 15px Roboto, sans-serif; white-space: pre;" font-weight="bold" font-size="15px" font-family="Roboto, sans-serif"><tspan x="12" y="27.57" dominant-baseline="ideographic">Fin-Corpus for pretraining</tspan><tspan x="12" y="63.58" dominant-baseline="ideographic">Fin-downstream datasets </tspan><tspan x="12" y="81.58" dominant-baseline="ideographic">for labeler＆retriever</tspan></text></g></g></g><g id="g-root-numb_zkp2kndwq32l-fill" data-item-order="2000000000" transform="translate(258, 171)"></g><g id="g-root-stac_13z8qvrf16rke-fill" data-item-order="2000000000" transform="translate(441.9991455078125, 163.99920654296875)"></g><g id="g-root-1_1lr5bmff0ww77-fill" data-item-order="2000000000" transform="translate(327.9991455078125, 259.99920654296875)"></g><g id="g-root-tx_fintoken_1lt0qvrf0wv7l-fill" data-item-order="2000000000" transform="translate(590.9991455078125, 283.999267578125)"><g id="tx_fintoken_1lt0qvrf0wv7l-fill" stroke="none" fill="#484848"><g><text style="font: bold 20px Roboto, sans-serif; white-space: pre;" font-weight="bold" font-size="20px" font-family="Roboto, sans-serif"><tspan x="12" y="33.64" dominant-baseline="ideographic">FinBERT2 ＆</tspan><tspan x="12" y="57.63" dominant-baseline="ideographic">Fin-tokenizer</tspan></text></g></g></g><g id="g-root-tx_finretri_18hk8iff0wwsi-fill" data-item-order="2000000000" transform="translate(26.9991455078125, 307.999267578125)"><g id="tx_finretri_18hk8iff0wwsi-fill" stroke="none" fill="#484848"><g><text style="font: bold 20px Roboto, sans-serif; white-space: pre;" font-weight="bold" font-size="20px" font-family="Roboto, sans-serif"><tspan x="22.84" y="33.64" dominant-baseline="ideographic">Fin-Retriever</tspan></text></g></g></g><g id="g-root-tx__1cvibdjf0wwzw-fill" data-item-order="2000000000" transform="translate(26.9991455078125, 139.99920654296875)"><g id="tx__1cvibdjf0wwzw-fill" stroke="none" fill="#484848"><g><text style="font: bold 15px Roboto, sans-serif; white-space: pre;" font-weight="bold" font-size="15px" font-family="Roboto, sans-serif"><tspan x="12" y="30.57" dominant-baseline="ideographic">better embedders from our </tspan><tspan x="12" y="48.57" dominant-baseline="ideographic">other models</tspan><tspan x="12" y="84.58" dominant-baseline="ideographic">excels in cutting company </tspan><tspan x="12" y="102.58" dominant-baseline="ideographic">name words </tspan></text></g></g></g><g id="g-root-tx_findatas_mb36zbf0ww0d-fill" data-item-order="2000000000" transform="translate(530.9991455078125, 103.99920654296875)"><g id="tx_findatas_mb36zbf0ww0d-fill" stroke="none" fill="#484848"><g><text style="font: bold 20px Roboto, sans-serif; white-space: pre;" font-weight="bold" font-size="20px" font-family="Roboto, sans-serif"><tspan x="12" y="33.64" dominant-baseline="ideographic">Fin-Datasets</tspan></text></g></g></g><g id="g-root-tx__zkoa3bf0wvf1-fill" data-item-order="2000000000" transform="translate(2.9991455078125, 343.999267578125)"><g id="tx__zkoa3bf0wvf1-fill" stroke="none" fill="#484848"><g><text style="font: bold 15px Roboto, sans-serif; white-space: pre;" font-weight="bold" font-size="15px" font-family="Roboto, sans-serif"><tspan x="12" y="30.57" dominant-baseline="ideographic">retrieve better in Fin-</tspan><tspan x="12" y="48.57" dominant-baseline="ideographic">domain</tspan><tspan x="12" y="84.58" dominant-baseline="ideographic">competitive in </tspan><tspan x="12" y="102.58" dominant-baseline="ideographic">general-domain</tspan></text></g></g></g><g id="g-root-tx__m97rpzf0wwzy-fill" data-item-order="2000000000" transform="translate(273.9991455078125, 559.999267578125)"><g id="tx__m97rpzf0wwzy-fill" stroke="none" fill="#484848"><g><text style="font: bold 15px Roboto, sans-serif; white-space: pre;" font-weight="bold" font-size="15px" font-family="Roboto, sans-serif"><tspan x="12" y="27.57" dominant-baseline="ideographic">mostly better than other </tspan><tspan x="12" y="45.57" dominant-baseline="ideographic">BERTs and LLMs with single-</tspan><tspan x="12" y="63.57" dominant-baseline="ideographic">task finetuned</tspan><tspan x="12" y="99.58" dominant-baseline="ideographic">cost-effective with 0.1B size</tspan></text></g></g></g><g id="g-root-1_qoepljf12jgt-fill" data-item-order="2000000000" transform="translate(494.9991455078125, 331.999267578125)"></g><g id="g-root-tx__8ydqfrf0wvf3-fill" data-item-order="2000000000" transform="translate(590.9991455078125, 343.999267578125)"><g id="tx__8ydqfrf0wvf3-fill" stroke="none" fill="#484848"><g><text style="font: bold 15px Roboto, sans-serif; white-space: pre;" font-weight="bold" font-size="15px" font-family="Roboto, sans-serif"><tspan x="12" y="27.57" dominant-baseline="ideographic">pretrained on 32B Fin-</tspan><tspan x="12" y="45.57" dominant-baseline="ideographic">Corpus </tspan><tspan x="12" y="81.58" dominant-baseline="ideographic">sizes with both base and </tspan><tspan x="12" y="99.58" dominant-baseline="ideographic">large </tspan></text></g></g></g><g id="g-root-tx_fintopic_zlx89jf0wxl7-fill" data-item-order="2000000000" transform="translate(74.9991455078125, 103.99920654296875)"><g id="tx_fintopic_zlx89jf0wxl7-fill" stroke="none" fill="#484848"><g><text style="font: bold 20px Roboto, sans-serif; white-space: pre;" font-weight="bold" font-size="20px" font-family="Roboto, sans-serif"><tspan x="11.53" y="33.64" dominant-baseline="ideographic">Fin-TopicModel</tspan></text></g></g></g><g id="g-root-tag_4o7ak7f0oidd-fill" data-item-order="2000000000" transform="translate(350, 442)"></g><g id="g-root-tx_finrober_v6q787f0wv7o-fill" data-item-order="2000000000" transform="translate(315.9991455078125, 523.999267578125)"><g id="tx_finrober_v6q787f0wv7o-fill" stroke="none" fill="#484848"><g><text style="font: bold 20px Roboto, sans-serif; white-space: pre;" font-weight="bold" font-size="20px" font-family="Roboto, sans-serif"><tspan x="13.68" y="33.64" dominant-baseline="ideographic">Fin-Labelers</tspan></text></g></g></g><g id="g-root-tx_finberts_18it0d3f0n3eu-fill" data-item-order="2000000000" transform="translate(285.9991455078125, 19.999237060546875)"><g id="tx_finberts_18it0d3f0n3eu-fill" stroke="none" fill="#484848"><g><text style="font: bold 25px Roboto, sans-serif; white-space: pre;" font-weight="bold" font-size="25px" font-family="Roboto, sans-serif"><tspan x="16.82" y="42.7" dominant-baseline="ideographic">FinBERT2-Series</tspan></text></g></g></g><g id="g-root-sear_zp2hbrer0559-fill" data-item-order="2000000000" transform="translate(205, 339)"></g><g id="g-root-0.cu_sy_3zi1jf0n3ls-stroke" data-item-order="1999853844" transform="translate(255.9991455078125, 188.3570556640625)"><g id="0.cu_sy_3zi1jf0n3ls-stroke" fill="none" stroke-linecap="round" stroke-linejoin="round" stroke-miterlimit="4" stroke="#808080" stroke-width="2"><g><path d="M 166.6988 244.2845C 192.8911 235.8805 215.1623 218.7219 230.0683 196.2531M 91.7178 243.7642C 66.0029 235.1144 44.1819 217.9903 29.5746 195.7116M 10.1103 135.1924C 10.037 133.4707 10 131.7397 10 130C 10 101.9785 19.6045 76.2003 35.7012 55.7778M 87.0537 17.9135C 100.3881 12.8012 114.8669 10 130 10C 144.2451 10 157.9105 12.4821 170.5872 17.0375M 224.0516 55.4652C 240.2971 75.937 250 101.8354 250 130C 250 132.0633 249.9479 134.1144 249.845 136.1522"></path></g></g></g><g id="g-root-5.cu_sy_1qa30uvf0n11l-stroke" data-item-order="1999853848" transform="translate(238.04220581054688, 138.221435546875)"><g id="5.cu_sy_1qa30uvf0n11l-stroke" fill="none" stroke-linecap="round" stroke-linejoin="round" stroke-miterlimit="4" stroke="#7f64ea" stroke-width="2"><g><path d="M 105.412445 65.512619C 107.334228 53.379517 104.62735 40.513245 96.836242 29.789719C 81.254242 8.342926 51.236542 3.588593 29.789734 19.170609C 8.342956 34.752609 3.588592 64.77031 19.170624 86.217102C 26.961578 96.94046 38.361542 103.490738 50.494598 105.41243L 97.903534 112.921692L 105.410736 65.523529C 105.411316 65.519898 105.411865 65.516266 105.412445 65.512619Z"></path></g></g></g><g id="g-root-4.cu_sy_1qa30uvf0n11m-stroke" data-item-order="1999853852" transform="translate(183.4697265625, 306.860107421875)"><g id="4.cu_sy_1qa30uvf0n11m-stroke" fill="none" stroke-linecap="round" stroke-linejoin="round" stroke-miterlimit="4" stroke="#de8431" stroke-width="2"><g><path d="M 100.781448 79.804077C 95.204544 90.749664 85.452041 99.567627 72.845779 103.663635C 47.63356 111.855591 20.554199 98.057983 12.362243 72.845764C 4.170303 47.633514 17.967926 20.554169 43.180145 12.362213C 55.786209 8.266266 68.859115 9.667694 79.804489 15.244659L 122.572952 37.035797L 100.786484 79.794342C 100.784775 79.797546 100.783096 79.800812 100.781448 79.804077Z"></path></g></g></g><g id="g-root-3.cu_sy_1lu9iqff0n1tv-stroke" data-item-order="1999853856" transform="translate(326.9991455078125, 384.47412109375)"><g id="3.cu_sy_1lu9iqff0n1tv-stroke" fill="none" stroke-linecap="round" stroke-linejoin="round" stroke-miterlimit="4" stroke="#92bd39" stroke-width="2"><g><path d="M 91.940796 43.941101C 100.627289 52.627411 106 64.627594 106 77.882507C 106 104.392212 84.509705 125.882507 58 125.882507C 31.490295 125.882507 10 104.392181 10 77.882507C 10 64.627716 15.372589 52.627716 24.058899 43.941406L 57.999695 10L 91.933105 43.933289C 91.935608 43.935913 91.938202 43.938507 91.940796 43.941101Z"></path></g></g></g><g id="g-root-2.cu_sy_1cymihjf0n2mk-stroke" data-item-order="1999853860" transform="translate(455.83184814453125, 307.86029052734375)"><g id="2.cu_sy_1cymihjf0n2mk-stroke" fill="none" stroke-linecap="round" stroke-linejoin="round" stroke-miterlimit="4" stroke="#3cc583" stroke-width="2"><g><path d="M 52.76828 15.244873C 63.713715 9.667725 76.786835 8.266266 89.392975 12.362244C 114.605194 20.554199 128.402863 47.633545 120.210907 72.845764C 112.018952 98.058014 84.939606 111.855621 59.727387 103.663666C 47.121308 99.567718 37.368866 90.749878 31.791901 79.804504L 10 37.036407L 52.758454 15.249786C 52.761749 15.248199 52.764984 15.246551 52.76828 15.244873Z"></path></g></g></g><g id="g-root-1.cu_sy_18it0d3f0n3et-stroke" data-item-order="1999853864" transform="translate(415.7288818359375, 138.221435546875)"><g id="1.cu_sy_18it0d3f0n3et-stroke" fill="none" stroke-linecap="round" stroke-linejoin="round" stroke-miterlimit="4" stroke="#1eabda" stroke-width="2"><g><path d="M 10.594422 65.512619C 8.672638 53.379517 11.379517 40.513245 19.170624 29.789719C 34.752625 8.342926 64.770325 3.588593 86.217102 19.170609C 107.663941 34.752609 112.418274 64.77031 96.836243 86.217102C 89.045288 96.94046 77.645325 103.490738 65.512268 105.41243L 18.103333 112.921692L 10.596131 65.523529C 10.595551 65.519898 10.595002 65.516266 10.594422 65.512619Z"></path></g></g></g><g id="g-root-tx__1q87rx3f0wxl4-stroke" data-item-order="2000000000" transform="translate(530.9991455078125, 139.99920654296875)"></g><g id="g-root-numb_zkp2kndwq32l-stroke" data-item-order="2000000000" transform="translate(258, 171)"><g id="numb_zkp2kndwq32l-stroke" fill="none" stroke-linecap="round" stroke-linejoin="round" stroke-miterlimit="4" stroke="#484848" stroke-width="2"><g><path d="M 23 18.996L 57 18.996M 23 34.996002L 57 34.996002M 23 50.995998L 57 50.995998M 11 48.478001C 11.270465 47.477654 12.260218 46.849575 13.280505 47.030834C 14.300793 47.21209 15.013651 48.142643 14.923012 49.174934C 14.832375 50.207226 13.968263 50.999313 12.932 51C 13.966249 51.002384 14.828083 51.792912 14.919554 52.823112C 15.011025 53.85331 14.301958 54.783318 13.284308 54.967888C 12.26666 55.152462 11.276148 54.530704 11 53.534M 11 33C 11 31.89543 11.895431 31 13 31L 13 31C 14.104569 31 15 31.89543 15 33L 15 33C 15.000039 33.647568 14.780008 34.275921 14.375999 34.781998L 11 39L 15 39M 11 15L 12 15C 12.552284 15 13 15.447716 13 16L 13 23M 11 22.996L 15 22.996"></path></g></g></g><g id="g-root-stac_13z8qvrf16rke-stroke" data-item-order="2000000000" transform="translate(441.9991455078125, 163.99920654296875)"><g id="stac_13z8qvrf16rke-stroke" fill="none" stroke-linecap="round" stroke-linejoin="round" stroke-miterlimit="4" stroke="#1eabda" stroke-width="2"><g><path d="M 26 11L 45.18 11C 45.704681 11.002209 46.207478 11.210512 46.580002 11.58L 51.419998 16.42C 51.78949 16.792522 51.997791 17.295321 52 17.82L 52 47C 52 48.104568 51.104568 49 50 49L 26 49C 24.895432 49 24 48.104568 24 47L 24 13C 24 11.895431 24.895432 11 26 11ZM 46 53L 22 53C 20.895432 53 20 52.104568 20 51L 20 17M 42 57L 18 57C 16.895432 57 16 56.104568 16 55L 16 21"></path></g></g></g><g id="g-root-1_1lr5bmff0ww77-stroke" data-item-order="2000000000" transform="translate(327.9991455078125, 259.99920654296875)"><g id="1_1lr5bmff0ww77-stroke" fill="none" stroke-linecap="round" stroke-linejoin="round" stroke-miterlimit="4" stroke="#969696" stroke-width="2"><g><path d="M 33.799999 91.444C 38.040874 90.738121 41.621407 87.902405 43.279999 83.935997M 19.684 44.183998C 27.86669 45.618896 34.896675 50.821739 38.66 58.228001M 33.132 50.916L 40.304001 45.535999M 50 12.691999C 49.923111 16.701862 49.199123 20.672989 47.856003 24.452M 42 28C 42 30.209139 43.790859 32 46 32C 48.209141 32 50 30.209139 50 28C 50 25.790861 48.209141 24 46 24C 43.790859 24 42 25.790861 42 28ZM 66 36C 66 38.209137 67.790863 40 70 40C 72.209137 40 74 38.209137 74 36C 74 33.790863 72.209137 32 70 32C 67.790863 32 66 33.790863 66 36ZM 80 52C 80 54.209141 81.790863 56 84 56C 86.209137 56 88 54.209141 88 52C 88 49.790859 86.209137 48 84 48C 81.790863 48 80 49.790859 80 52ZM 66 66C 66 68.209137 67.790863 70 70 70C 72.209137 70 74 68.209137 74 66C 74 63.790859 72.209137 62 70 62C 67.790863 62 66 63.790859 66 66ZM 40 44C 40 46.209141 41.790863 48 44 48C 46.209141 48 48 46.209141 48 44C 48 41.790863 46.209141 40 44 40C 41.790863 40 40 41.790863 40 44ZM 36 62C 36 64.209137 37.790863 66 40 66C 42.209141 66 44 64.209137 44 62C 44 59.790859 42.209141 58 40 58C 37.790863 58 36 59.790859 36 62ZM 104 58C 104.016022 52.371658 101.10601 47.139393 96.316002 44.184002C 96.587067 43.002941 96.727913 41.795738 96.736 40.584C 96.816147 32.266502 90.485756 25.28635 82.199997 24.556C 82.282623 21.280796 81.049637 18.109016 78.776611 15.749545C 76.503578 13.390073 73.380005 12.039617 70.104004 12C 64.924454 12.296537 60.302902 15.351099 58 20C 55.697098 15.351099 51.075546 12.296537 45.896 12C 42.619995 12.039617 39.496422 13.390073 37.223389 15.749545C 34.950359 18.109016 33.717373 21.280796 33.799999 24.556C 25.511148 25.286583 19.179649 32.271439 19.264 40.591999C 19.265526 41.803001 19.399658 43.010197 19.664 44.191998C 14.88658 47.15926 11.981133 52.384087 11.981133 58.007999C 11.981133 63.631912 14.88658 68.856735 19.664 71.823997C 19.399658 73.005798 19.265526 74.212997 19.264 75.423996C 19.188053 83.738434 25.517338 90.713882 33.799999 91.444C 33.717373 94.7192 34.950359 97.890984 37.223389 100.25045C 39.496422 102.609924 42.619995 103.960381 45.896 104C 50.672661 104.115799 55.199921 101.87162 57.999996 97.999992C 60.800076 101.87162 65.327332 104.115799 70.103996 103.999992C 73.380005 103.960381 76.503578 102.609924 78.776611 100.25045C 81.049637 97.890984 82.282623 94.7192 82.199997 91.444C 90.488846 90.713417 96.820351 83.728554 96.736 75.407997C 96.727913 74.196259 96.587067 72.989059 96.315994 71.807999C 101.103577 68.854095 104.013237 63.6255 104 58ZM 58 20L 58 66M 58 81.832001L 58 98M 94.692001 32.652L 83.599998 38.204002C 80.359627 39.826309 76.552406 39.864674 73.279999 38.307999M 70 62C 71.186089 57.050533 75.050537 53.186089 80.000008 52.000004M 82.199997 91.444C 81.096001 87.599998 79.211998 84.643997 76 84M 40 80C 40 82.209137 41.790863 84 44 84C 46.209141 84 48 82.209137 48 80C 48 77.790863 46.209141 76 44 76C 41.790863 76 40 77.790863 40 80ZM 68 84C 68 86.209137 69.790863 88 72 88C 74.209137 88 76 86.209137 76 84C 76 81.790863 74.209137 80 72 80C 69.790863 80 68 81.790863 68 84Z"></path></g></g></g><g id="g-root-tx_fintoken_1lt0qvrf0wv7l-stroke" data-item-order="2000000000" transform="translate(590.9991455078125, 283.999267578125)"></g><g id="g-root-tx_finretri_18hk8iff0wwsi-stroke" data-item-order="2000000000" transform="translate(26.9991455078125, 307.999267578125)"></g><g id="g-root-tx__1cvibdjf0wwzw-stroke" data-item-order="2000000000" transform="translate(26.9991455078125, 139.99920654296875)"></g><g id="g-root-tx_findatas_mb36zbf0ww0d-stroke" data-item-order="2000000000" transform="translate(530.9991455078125, 103.99920654296875)"></g><g id="g-root-tx__zkoa3bf0wvf1-stroke" data-item-order="2000000000" transform="translate(2.9991455078125, 343.999267578125)"></g><g id="g-root-tx__m97rpzf0wwzy-stroke" data-item-order="2000000000" transform="translate(273.9991455078125, 559.999267578125)"></g><g id="g-root-1_qoepljf12jgt-stroke" data-item-order="2000000000" transform="translate(494.9991455078125, 331.999267578125)"><g id="1_qoepljf12jgt-stroke" fill="none" stroke-linecap="round" stroke-linejoin="round" stroke-miterlimit="4" stroke="#3cc583" stroke-width="2"><g><path d="M 23.931999 53.966L 11 57L 14.034 44.07L 45.928001 12.172C 47.490227 10.609138 50.023773 10.609138 51.585999 12.172L 55.830002 16.414C 57.39286 17.976229 57.39286 20.509773 55.830002 22.071999ZM 54.419998 23.49L 44.514 13.586M 51.566002 26.344L 41.683998 16.414M 24.436001 53.466L 14.535999 43.566002"></path></g></g></g><g id="g-root-tx__8ydqfrf0wvf3-stroke" data-item-order="2000000000" transform="translate(590.9991455078125, 343.999267578125)"></g><g id="g-root-tx_fintopic_zlx89jf0wxl7-stroke" data-item-order="2000000000" transform="translate(74.9991455078125, 103.99920654296875)"></g><g id="g-root-tag_4o7ak7f0oidd-stroke" data-item-order="2000000000" transform="translate(350, 442)"><g id="tag_4o7ak7f0oidd-stroke" fill="none" stroke-linecap="round" stroke-linejoin="round" stroke-miterlimit="4" stroke="#484848" stroke-width="2"><g><path d="M 55.428574 42.091427L 42.091427 55.428574C 41.087482 56.431271 39.46109 56.431271 38.457146 55.428574L 16.137142 33.10857C 15.867782 32.851067 15.729176 32.485653 15.76 32.114285L 17.782858 18.94857C 17.831581 18.326063 18.326063 17.831581 18.948572 17.782858L 32.114285 15.76C 32.485653 15.729176 32.851067 15.867782 33.108574 16.137142L 55.428574 38.457146C 56.431271 39.46109 56.431271 41.087482 55.428574 42.091431ZM 23.817144 23.817144L 11.817142 11.817142"></path></g></g></g><g id="g-root-tx_finrober_v6q787f0wv7o-stroke" data-item-order="2000000000" transform="translate(315.9991455078125, 523.999267578125)"></g><g id="g-root-tx_finberts_18it0d3f0n3eu-stroke" data-item-order="2000000000" transform="translate(285.9991455078125, 19.999237060546875)"></g><g id="g-root-sear_zp2hbrer0559-stroke" data-item-order="2000000000" transform="translate(205, 339)"><g id="sear_zp2hbrer0559-stroke" fill="none" stroke-linecap="round" stroke-linejoin="round" stroke-miterlimit="4" stroke="#484848" stroke-width="2"><g><path d="M 11.714286 30.297144C 11.712329 40.561554 20.03273 48.883545 30.297144 48.883545C 40.561554 48.883545 48.881958 40.561554 48.880001 30.297144C 48.881958 20.03273 40.561554 11.710742 30.297144 11.710742C 20.03273 11.710742 11.712329 20.03273 11.714286 30.297144M 56.285713 56.285713L 43.428574 43.428574"></path></g></g></g></g></g></svg>